<svg id="testSVG" viewBox="0 0 300 300" xmlns="http://www.w3.org/2000/svg" style="background: transparent; max-width: inherit; max-height: inherit;" data-reuse="ed0f5b6263a6aa4c727623bbfaf66ebd"><svg width="300" height="300"><defs><clipPath id="clip-path-dot-color"><circle cx="10" cy="110" r="5" transform="rotate(0,10,110)"/><circle cx="10" cy="120" r="5" transform="rotate(0,10,120)"/><circle cx="10" cy="140" r="5" transform="rotate(0,10,140)"/><circle cx="10" cy="170" r="5" transform="rotate(0,10,170)"/><circle cx="10" cy="200" r="5" transform="rotate(0,10,200)"/><circle cx="10" cy="210" r="5" transform="rotate(0,10,210)"/><circle cx="20" cy="90" r="5" transform="rotate(0,20,90)"/><circle cx="20" cy="100" r="5" transform="rotate(0,20,100)"/><circle cx="20" cy="110" r="5" transform="rotate(0,20,110)"/><circle cx="20" cy="120" r="5" transform="rotate(0,20,120)"/><circle cx="20" cy="140" r="5" transform="rotate(0,20,140)"/><circle cx="20" cy="150" r="5" transform="rotate(0,20,150)"/><circle cx="20" cy="200" r="5" transform="rotate(0,20,200)"/><circle cx="30" cy="110" r="5" transform="rotate(0,30,110)"/><circle cx="30" cy="130" r="5" transform="rotate(0,30,130)"/><circle cx="30" cy="140" r="5" transform="rotate(0,30,140)"/><circle cx="30" cy="150" r="5" transform="rotate(0,30,150)"/><circle cx="30" cy="170" r="5" transform="rotate(0,30,170)"/><circle cx="30" cy="200" r="5" transform="rotate(0,30,200)"/><circle cx="40" cy="90" r="5" transform="rotate(0,40,90)"/><circle cx="40" cy="100" r="5" transform="rotate(0,40,100)"/><circle cx="40" cy="110" r="5" transform="rotate(0,40,110)"/><circle cx="40" cy="120" r="5" transform="rotate(0,40,120)"/><circle cx="40" cy="180" r="5" transform="rotate(0,40,180)"/><circle cx="40" cy="210" r="5" transform="rotate(0,40,210)"/><circle cx="50" cy="90" r="5" transform="rotate(0,50,90)"/><circle cx="50" cy="110" r="5" transform="rotate(0,50,110)"/><circle cx="50" cy="120" r="5" transform="rotate(0,50,120)"/><circle cx="50" cy="130" r="5" transform="rotate(0,50,130)"/><circle cx="50" cy="140" r="5" transform="rotate(0,50,140)"/><circle cx="50" cy="150" r="5" transform="rotate(0,50,150)"/><circle cx="50" cy="160" r="5" transform="rotate(0,50,160)"/><circle cx="50" cy="170" r="5" transform="rotate(0,50,170)"/><circle cx="50" cy="200" r="5" transform="rotate(0,50,200)"/><circle cx="50" cy="210" r="5" transform="rotate(0,50,210)"/><circle cx="60" cy="150" r="5" transform="rotate(0,60,150)"/><circle cx="60" cy="170" r="5" transform="rotate(0,60,170)"/><circle cx="60" cy="210" r="5" transform="rotate(0,60,210)"/><circle cx="70" cy="90" r="5" transform="rotate(0,70,90)"/><circle cx="70" cy="110" r="5" transform="rotate(0,70,110)"/><circle cx="70" cy="130" r="5" transform="rotate(0,70,130)"/><circle cx="70" cy="150" r="5" transform="rotate(0,70,150)"/><circle cx="70" cy="170" r="5" transform="rotate(0,70,170)"/><circle cx="70" cy="190" r="5" transform="rotate(0,70,190)"/><circle cx="70" cy="210" r="5" transform="rotate(0,70,210)"/><circle cx="80" cy="90" r="5" transform="rotate(0,80,90)"/><circle cx="80" cy="100" r="5" transform="rotate(0,80,100)"/><circle cx="80" cy="130" r="5" transform="rotate(0,80,130)"/><circle cx="80" cy="150" r="5" transform="rotate(0,80,150)"/><circle cx="80" cy="160" r="5" transform="rotate(0,80,160)"/><circle cx="80" cy="170" r="5" transform="rotate(0,80,170)"/><circle cx="80" cy="180" r="5" transform="rotate(0,80,180)"/><circle cx="80" cy="190" r="5" transform="rotate(0,80,190)"/><circle cx="80" cy="200" r="5" transform="rotate(0,80,200)"/><circle cx="90" cy="20" r="5" transform="rotate(0,90,20)"/><circle cx="90" cy="40" r="5" transform="rotate(0,90,40)"/><circle cx="90" cy="50" r="5" transform="rotate(0,90,50)"/><circle cx="90" cy="60" r="5" transform="rotate(0,90,60)"/><circle cx="90" cy="70" r="5" transform="rotate(0,90,70)"/><circle cx="90" cy="90" r="5" transform="rotate(0,90,90)"/><circle cx="90" cy="100" r="5" transform="rotate(0,90,100)"/><circle cx="90" cy="110" r="5" transform="rotate(0,90,110)"/><circle cx="90" cy="140" r="5" transform="rotate(0,90,140)"/><circle cx="90" cy="160" r="5" transform="rotate(0,90,160)"/><circle cx="90" cy="170" r="5" transform="rotate(0,90,170)"/><circle cx="90" cy="200" r="5" transform="rotate(0,90,200)"/><circle cx="90" cy="220" r="5" transform="rotate(0,90,220)"/><circle cx="90" cy="230" r="5" transform="rotate(0,90,230)"/><circle cx="90" cy="250" r="5" transform="rotate(0,90,250)"/><circle cx="90" cy="260" r="5" transform="rotate(0,90,260)"/><circle cx="90" cy="280" r="5" transform="rotate(0,90,280)"/><circle cx="100" cy="20" r="5" transform="rotate(0,100,20)"/><circle cx="100" cy="30" r="5" transform="rotate(0,100,30)"/><circle cx="100" cy="120" r="5" transform="rotate(0,100,120)"/><circle cx="100" cy="170" r="5" transform="rotate(0,100,170)"/><circle cx="100" cy="190" r="5" transform="rotate(0,100,190)"/><circle cx="100" cy="220" r="5" transform="rotate(0,100,220)"/><circle cx="100" cy="250" r="5" transform="rotate(0,100,250)"/><circle cx="100" cy="260" r="5" transform="rotate(0,100,260)"/><circle cx="100" cy="280" r="5" transform="rotate(0,100,280)"/><circle cx="110" cy="10" r="5" transform="rotate(0,110,10)"/><circle cx="110" cy="20" r="5" transform="rotate(0,110,20)"/><circle cx="110" cy="50" r="5" transform="rotate(0,110,50)"/><circle cx="110" cy="70" r="5" transform="rotate(0,110,70)"/><circle cx="110" cy="80" r="5" transform="rotate(0,110,80)"/><circle cx="110" cy="110" r="5" transform="rotate(0,110,110)"/><circle cx="110" cy="120" r="5" transform="rotate(0,110,120)"/><circle cx="110" cy="140" r="5" transform="rotate(0,110,140)"/><circle cx="110" cy="150" r="5" transform="rotate(0,110,150)"/><circle cx="110" cy="170" r="5" transform="rotate(0,110,170)"/><circle cx="110" cy="180" r="5" transform="rotate(0,110,180)"/><circle cx="110" cy="190" r="5" transform="rotate(0,110,190)"/><circle cx="110" cy="200" r="5" transform="rotate(0,110,200)"/><circle cx="110" cy="210" r="5" transform="rotate(0,110,210)"/><circle cx="110" cy="220" r="5" transform="rotate(0,110,220)"/><circle cx="110" cy="230" r="5" transform="rotate(0,110,230)"/><circle cx="110" cy="260" r="5" transform="rotate(0,110,260)"/><circle cx="120" cy="30" r="5" transform="rotate(0,120,30)"/><circle cx="120" cy="40" r="5" transform="rotate(0,120,40)"/><circle cx="120" cy="50" r="5" transform="rotate(0,120,50)"/><circle cx="120" cy="60" r="5" transform="rotate(0,120,60)"/><circle cx="120" cy="80" r="5" transform="rotate(0,120,80)"/><circle cx="120" cy="90" r="5" transform="rotate(0,120,90)"/><circle cx="120" cy="110" r="5" transform="rotate(0,120,110)"/><circle cx="120" cy="120" r="5" transform="rotate(0,120,120)"/><circle cx="120" cy="130" r="5" transform="rotate(0,120,130)"/><circle cx="120" cy="160" r="5" transform="rotate(0,120,160)"/><circle cx="120" cy="170" r="5" transform="rotate(0,120,170)"/><circle cx="120" cy="180" r="5" transform="rotate(0,120,180)"/><circle cx="120" cy="200" r="5" transform="rotate(0,120,200)"/><circle cx="120" cy="210" r="5" transform="rotate(0,120,210)"/><circle cx="120" cy="250" r="5" transform="rotate(0,120,250)"/><circle cx="120" cy="290" r="5" transform="rotate(0,120,290)"/><circle cx="130" cy="10" r="5" transform="rotate(0,130,10)"/><circle cx="130" cy="20" r="5" transform="rotate(0,130,20)"/><circle cx="130" cy="50" r="5" transform="rotate(0,130,50)"/><circle cx="130" cy="70" r="5" transform="rotate(0,130,70)"/><circle cx="130" cy="80" r="5" transform="rotate(0,130,80)"/><circle cx="130" cy="90" r="5" transform="rotate(0,130,90)"/><circle cx="130" cy="100" r="5" transform="rotate(0,130,100)"/><circle cx="130" cy="110" r="5" transform="rotate(0,130,110)"/><circle cx="130" cy="120" r="5" transform="rotate(0,130,120)"/><circle cx="130" cy="130" r="5" transform="rotate(0,130,130)"/><circle cx="130" cy="140" r="5" transform="rotate(0,130,140)"/><circle cx="130" cy="160" r="5" transform="rotate(0,130,160)"/><circle cx="130" cy="170" r="5" transform="rotate(0,130,170)"/><circle cx="130" cy="210" r="5" transform="rotate(0,130,210)"/><circle cx="130" cy="220" r="5" transform="rotate(0,130,220)"/><circle cx="130" cy="230" r="5" transform="rotate(0,130,230)"/><circle cx="130" cy="280" r="5" transform="rotate(0,130,280)"/><circle cx="140" cy="30" r="5" transform="rotate(0,140,30)"/><circle cx="140" cy="60" r="5" transform="rotate(0,140,60)"/><circle cx="140" cy="80" r="5" transform="rotate(0,140,80)"/><circle cx="140" cy="120" r="5" transform="rotate(0,140,120)"/><circle cx="140" cy="140" r="5" transform="rotate(0,140,140)"/><circle cx="140" cy="150" r="5" transform="rotate(0,140,150)"/><circle cx="140" cy="170" r="5" transform="rotate(0,140,170)"/><circle cx="140" cy="230" r="5" transform="rotate(0,140,230)"/><circle cx="140" cy="250" r="5" transform="rotate(0,140,250)"/><circle cx="140" cy="270" r="5" transform="rotate(0,140,270)"/><circle cx="140" cy="290" r="5" transform="rotate(0,140,290)"/><circle cx="150" cy="10" r="5" transform="rotate(0,150,10)"/><circle cx="150" cy="40" r="5" transform="rotate(0,150,40)"/><circle cx="150" cy="50" r="5" transform="rotate(0,150,50)"/><circle cx="150" cy="60" r="5" transform="rotate(0,150,60)"/><circle cx="150" cy="70" r="5" transform="rotate(0,150,70)"/><circle cx="150" cy="100" r="5" transform="rotate(0,150,100)"/><circle cx="150" cy="160" r="5" transform="rotate(0,150,160)"/><circle cx="150" cy="170" r="5" transform="rotate(0,150,170)"/><circle cx="150" cy="190" r="5" transform="rotate(0,150,190)"/><circle cx="150" cy="200" r="5" transform="rotate(0,150,200)"/><circle cx="150" cy="210" r="5" transform="rotate(0,150,210)"/><circle cx="150" cy="230" r="5" transform="rotate(0,150,230)"/><circle cx="150" cy="240" r="5" transform="rotate(0,150,240)"/><circle cx="150" cy="260" r="5" transform="rotate(0,150,260)"/><circle cx="150" cy="280" r="5" transform="rotate(0,150,280)"/><circle cx="150" cy="290" r="5" transform="rotate(0,150,290)"/><circle cx="160" cy="20" r="5" transform="rotate(0,160,20)"/><circle cx="160" cy="90" r="5" transform="rotate(0,160,90)"/><circle cx="160" cy="100" r="5" transform="rotate(0,160,100)"/><circle cx="160" cy="110" r="5" transform="rotate(0,160,110)"/><circle cx="160" cy="130" r="5" transform="rotate(0,160,130)"/><circle cx="160" cy="140" r="5" transform="rotate(0,160,140)"/><circle cx="160" cy="170" r="5" transform="rotate(0,160,170)"/><circle cx="160" cy="220" r="5" transform="rotate(0,160,220)"/><circle cx="160" cy="250" r="5" transform="rotate(0,160,250)"/><circle cx="160" cy="260" r="5" transform="rotate(0,160,260)"/><circle cx="160" cy="270" r="5" transform="rotate(0,160,270)"/><circle cx="160" cy="280" r="5" transform="rotate(0,160,280)"/><circle cx="160" cy="290" r="5" transform="rotate(0,160,290)"/><circle cx="170" cy="30" r="5" transform="rotate(0,170,30)"/><circle cx="170" cy="40" r="5" transform="rotate(0,170,40)"/><circle cx="170" cy="50" r="5" transform="rotate(0,170,50)"/><circle cx="170" cy="60" r="5" transform="rotate(0,170,60)"/><circle cx="170" cy="70" r="5" transform="rotate(0,170,70)"/><circle cx="170" cy="80" r="5" transform="rotate(0,170,80)"/><circle cx="170" cy="100" r="5" transform="rotate(0,170,100)"/><circle cx="170" cy="120" r="5" transform="rotate(0,170,120)"/><circle cx="170" cy="140" r="5" transform="rotate(0,170,140)"/><circle cx="170" cy="180" r="5" transform="rotate(0,170,180)"/><circle cx="170" cy="190" r="5" transform="rotate(0,170,190)"/><circle cx="170" cy="200" r="5" transform="rotate(0,170,200)"/><circle cx="170" cy="210" r="5" transform="rotate(0,170,210)"/><circle cx="170" cy="220" r="5" transform="rotate(0,170,220)"/><circle cx="170" cy="260" r="5" transform="rotate(0,170,260)"/><circle cx="170" cy="290" r="5" transform="rotate(0,170,290)"/><circle cx="180" cy="10" r="5" transform="rotate(0,180,10)"/><circle cx="180" cy="20" r="5" transform="rotate(0,180,20)"/><circle cx="180" cy="30" r="5" transform="rotate(0,180,30)"/><circle cx="180" cy="40" r="5" transform="rotate(0,180,40)"/><circle cx="180" cy="80" r="5" transform="rotate(0,180,80)"/><circle cx="180" cy="100" r="5" transform="rotate(0,180,100)"/><circle cx="180" cy="120" r="5" transform="rotate(0,180,120)"/><circle cx="180" cy="130" r="5" transform="rotate(0,180,130)"/><circle cx="180" cy="140" r="5" transform="rotate(0,180,140)"/><circle cx="180" cy="150" r="5" transform="rotate(0,180,150)"/><circle cx="180" cy="180" r="5" transform="rotate(0,180,180)"/><circle cx="180" cy="220" r="5" transform="rotate(0,180,220)"/><circle cx="180" cy="240" r="5" transform="rotate(0,180,240)"/><circle cx="180" cy="250" r="5" transform="rotate(0,180,250)"/><circle cx="180" cy="260" r="5" transform="rotate(0,180,260)"/><circle cx="190" cy="10" r="5" transform="rotate(0,190,10)"/><circle cx="190" cy="20" r="5" transform="rotate(0,190,20)"/><circle cx="190" cy="40" r="5" transform="rotate(0,190,40)"/><circle cx="190" cy="50" r="5" transform="rotate(0,190,50)"/><circle cx="190" cy="70" r="5" transform="rotate(0,190,70)"/><circle cx="190" cy="80" r="5" transform="rotate(0,190,80)"/><circle cx="190" cy="90" r="5" transform="rotate(0,190,90)"/><circle cx="190" cy="100" r="5" transform="rotate(0,190,100)"/><circle cx="190" cy="110" r="5" transform="rotate(0,190,110)"/><circle cx="190" cy="120" r="5" transform="rotate(0,190,120)"/><circle cx="190" cy="130" r="5" transform="rotate(0,190,130)"/><circle cx="190" cy="150" r="5" transform="rotate(0,190,150)"/><circle cx="190" cy="170" r="5" transform="rotate(0,190,170)"/><circle cx="190" cy="190" r="5" transform="rotate(0,190,190)"/><circle cx="190" cy="200" r="5" transform="rotate(0,190,200)"/><circle cx="190" cy="260" r="5" transform="rotate(0,190,260)"/><circle cx="190" cy="270" r="5" transform="rotate(0,190,270)"/><circle cx="190" cy="290" r="5" transform="rotate(0,190,290)"/><circle cx="200" cy="10" r="5" transform="rotate(0,200,10)"/><circle cx="200" cy="20" r="5" transform="rotate(0,200,20)"/><circle cx="200" cy="50" r="5" transform="rotate(0,200,50)"/><circle cx="200" cy="120" r="5" transform="rotate(0,200,120)"/><circle cx="200" cy="130" r="5" transform="rotate(0,200,130)"/><circle cx="200" cy="140" r="5" transform="rotate(0,200,140)"/><circle cx="200" cy="160" r="5" transform="rotate(0,200,160)"/><circle cx="200" cy="170" r="5" transform="rotate(0,200,170)"/><circle cx="200" cy="190" r="5" transform="rotate(0,200,190)"/><circle cx="200" cy="200" r="5" transform="rotate(0,200,200)"/><circle cx="200" cy="210" r="5" transform="rotate(0,200,210)"/><circle cx="200" cy="220" r="5" transform="rotate(0,200,220)"/><circle cx="200" cy="230" r="5" transform="rotate(0,200,230)"/><circle cx="200" cy="240" r="5" transform="rotate(0,200,240)"/><circle cx="200" cy="250" r="5" transform="rotate(0,200,250)"/><circle cx="200" cy="260" r="5" transform="rotate(0,200,260)"/><circle cx="200" cy="270" r="5" transform="rotate(0,200,270)"/><circle cx="200" cy="280" r="5" transform="rotate(0,200,280)"/><circle cx="210" cy="10" r="5" transform="rotate(0,210,10)"/><circle cx="210" cy="20" r="5" transform="rotate(0,210,20)"/><circle cx="210" cy="40" r="5" transform="rotate(0,210,40)"/><circle cx="210" cy="60" r="5" transform="rotate(0,210,60)"/><circle cx="210" cy="70" r="5" transform="rotate(0,210,70)"/><circle cx="210" cy="90" r="5" transform="rotate(0,210,90)"/><circle cx="210" cy="100" r="5" transform="rotate(0,210,100)"/><circle cx="210" cy="130" r="5" transform="rotate(0,210,130)"/><circle cx="210" cy="140" r="5" transform="rotate(0,210,140)"/><circle cx="210" cy="150" r="5" transform="rotate(0,210,150)"/><circle cx="210" cy="170" r="5" transform="rotate(0,210,170)"/><circle cx="210" cy="180" r="5" transform="rotate(0,210,180)"/><circle cx="210" cy="190" r="5" transform="rotate(0,210,190)"/><circle cx="210" cy="210" r="5" transform="rotate(0,210,210)"/><circle cx="210" cy="220" r="5" transform="rotate(0,210,220)"/><circle cx="210" cy="230" r="5" transform="rotate(0,210,230)"/><circle cx="210" cy="240" r="5" transform="rotate(0,210,240)"/><circle cx="210" cy="250" r="5" transform="rotate(0,210,250)"/><circle cx="210" cy="270" r="5" transform="rotate(0,210,270)"/><circle cx="210" cy="280" r="5" transform="rotate(0,210,280)"/><circle cx="220" cy="90" r="5" transform="rotate(0,220,90)"/><circle cx="220" cy="110" r="5" transform="rotate(0,220,110)"/><circle cx="220" cy="160" r="5" transform="rotate(0,220,160)"/><circle cx="220" cy="180" r="5" transform="rotate(0,220,180)"/><circle cx="220" cy="190" r="5" transform="rotate(0,220,190)"/><circle cx="220" cy="210" r="5" transform="rotate(0,220,210)"/><circle cx="220" cy="250" r="5" transform="rotate(0,220,250)"/><circle cx="220" cy="260" r="5" transform="rotate(0,220,260)"/><circle cx="220" cy="270" r="5" transform="rotate(0,220,270)"/><circle cx="230" cy="100" r="5" transform="rotate(0,230,100)"/><circle cx="230" cy="120" r="5" transform="rotate(0,230,120)"/><circle cx="230" cy="130" r="5" transform="rotate(0,230,130)"/><circle cx="230" cy="140" r="5" transform="rotate(0,230,140)"/><circle cx="230" cy="160" r="5" transform="rotate(0,230,160)"/><circle cx="230" cy="170" r="5" transform="rotate(0,230,170)"/><circle cx="230" cy="200" r="5" transform="rotate(0,230,200)"/><circle cx="230" cy="210" r="5" transform="rotate(0,230,210)"/><circle cx="230" cy="230" r="5" transform="rotate(0,230,230)"/><circle cx="230" cy="250" r="5" transform="rotate(0,230,250)"/><circle cx="230" cy="270" r="5" transform="rotate(0,230,270)"/><circle cx="240" cy="90" r="5" transform="rotate(0,240,90)"/><circle cx="240" cy="110" r="5" transform="rotate(0,240,110)"/><circle cx="240" cy="120" r="5" transform="rotate(0,240,120)"/><circle cx="240" cy="140" r="5" transform="rotate(0,240,140)"/><circle cx="240" cy="160" r="5" transform="rotate(0,240,160)"/><circle cx="240" cy="170" r="5" transform="rotate(0,240,170)"/><circle cx="240" cy="190" r="5" transform="rotate(0,240,190)"/><circle cx="240" cy="200" r="5" transform="rotate(0,240,200)"/><circle cx="240" cy="210" r="5" transform="rotate(0,240,210)"/><circle cx="240" cy="250" r="5" transform="rotate(0,240,250)"/><circle cx="240" cy="260" r="5" transform="rotate(0,240,260)"/><circle cx="240" cy="280" r="5" transform="rotate(0,240,280)"/><circle cx="250" cy="90" r="5" transform="rotate(0,250,90)"/><circle cx="250" cy="100" r="5" transform="rotate(0,250,100)"/><circle cx="250" cy="120" r="5" transform="rotate(0,250,120)"/><circle cx="250" cy="150" r="5" transform="rotate(0,250,150)"/><circle cx="250" cy="160" r="5" transform="rotate(0,250,160)"/><circle cx="250" cy="180" r="5" transform="rotate(0,250,180)"/><circle cx="250" cy="200" r="5" transform="rotate(0,250,200)"/><circle cx="250" cy="210" r="5" transform="rotate(0,250,210)"/><circle cx="250" cy="220" r="5" transform="rotate(0,250,220)"/><circle cx="250" cy="230" r="5" transform="rotate(0,250,230)"/><circle cx="250" cy="240" r="5" transform="rotate(0,250,240)"/><circle cx="250" cy="250" r="5" transform="rotate(0,250,250)"/><circle cx="260" cy="90" r="5" transform="rotate(0,260,90)"/><circle cx="260" cy="120" r="5" transform="rotate(0,260,120)"/><circle cx="260" cy="140" r="5" transform="rotate(0,260,140)"/><circle cx="260" cy="150" r="5" transform="rotate(0,260,150)"/><circle cx="260" cy="180" r="5" transform="rotate(0,260,180)"/><circle cx="260" cy="190" r="5" transform="rotate(0,260,190)"/><circle cx="260" cy="240" r="5" transform="rotate(0,260,240)"/><circle cx="260" cy="260" r="5" transform="rotate(0,260,260)"/><circle cx="260" cy="280" r="5" transform="rotate(0,260,280)"/><circle cx="270" cy="100" r="5" transform="rotate(0,270,100)"/><circle cx="270" cy="110" r="5" transform="rotate(0,270,110)"/><circle cx="270" cy="140" r="5" transform="rotate(0,270,140)"/><circle cx="270" cy="160" r="5" transform="rotate(0,270,160)"/><circle cx="270" cy="180" r="5" transform="rotate(0,270,180)"/><circle cx="270" cy="210" r="5" transform="rotate(0,270,210)"/><circle cx="270" cy="220" r="5" transform="rotate(0,270,220)"/><circle cx="270" cy="240" r="5" transform="rotate(0,270,240)"/><circle cx="270" cy="250" r="5" transform="rotate(0,270,250)"/><circle cx="270" cy="260" r="5" transform="rotate(0,270,260)"/><circle cx="270" cy="280" r="5" transform="rotate(0,270,280)"/><circle cx="270" cy="290" r="5" transform="rotate(0,270,290)"/><circle cx="280" cy="90" r="5" transform="rotate(0,280,90)"/><circle cx="280" cy="100" r="5" transform="rotate(0,280,100)"/><circle cx="280" cy="110" r="5" transform="rotate(0,280,110)"/><circle cx="280" cy="130" r="5" transform="rotate(0,280,130)"/><circle cx="280" cy="170" r="5" transform="rotate(0,280,170)"/><circle cx="280" cy="190" r="5" transform="rotate(0,280,190)"/><circle cx="280" cy="200" r="5" transform="rotate(0,280,200)"/><circle cx="280" cy="250" r="5" transform="rotate(0,280,250)"/><circle cx="280" cy="270" r="5" transform="rotate(0,280,270)"/><circle cx="280" cy="290" r="5" transform="rotate(0,280,290)"/><circle cx="290" cy="110" r="5" transform="rotate(0,290,110)"/><circle cx="290" cy="120" r="5" transform="rotate(0,290,120)"/><circle cx="290" cy="130" r="5" transform="rotate(0,290,130)"/><circle cx="290" cy="160" r="5" transform="rotate(0,290,160)"/><circle cx="290" cy="210" r="5" transform="rotate(0,290,210)"/><circle cx="290" cy="220" r="5" transform="rotate(0,290,220)"/><circle cx="290" cy="240" r="5" transform="rotate(0,290,240)"/><circle cx="290" cy="250" r="5" transform="rotate(0,290,250)"/><circle cx="290" cy="260" r="5" transform="rotate(0,290,260)"/><path clip-rule="evenodd" d="M 5 30v 20a 25 25, 0, 0, 0, 25 25h 20a 25 25, 0, 0, 0, 25 -25v -20a 25 25, 0, 0, 0, -25 -25h -20a 25 25, 0, 0, 0, -25 25M 30 15h 20a 15 15, 0, 0, 1, 15 15v 20a 15 15, 0, 0, 1, -15 15h -20a 15 15, 0, 0, 1, -15 -15v -20a 15 15, 0, 0, 1, 15 -15" transform="rotate(0,40,40)"/><circle cx="40" cy="40" r="15" transform="rotate(0,40,40)"/><path clip-rule="evenodd" d="M 225 30v 20a 25 25, 0, 0, 0, 25 25h 20a 25 25, 0, 0, 0, 25 -25v -20a 25 25, 0, 0, 0, -25 -25h -20a 25 25, 0, 0, 0, -25 25M 250 15h 20a 15 15, 0, 0, 1, 15 15v 20a 15 15, 0, 0, 1, -15 15h -20a 15 15, 0, 0, 1, -15 -15v -20a 15 15, 0, 0, 1, 15 -15" transform="rotate(90,260,40)"/><circle cx="260" cy="40" r="15" transform="rotate(90,260,40)"/><path clip-rule="evenodd" d="M 5 250v 20a 25 25, 0, 0, 0, 25 25h 20a 25 25, 0, 0, 0, 25 -25v -20a 25 25, 0, 0, 0, -25 -25h -20a 25 25, 0, 0, 0, -25 25M 30 235h 20a 15 15, 0, 0, 1, 15 15v 20a 15 15, 0, 0, 1, -15 15h -20a 15 15, 0, 0, 1, -15 -15v -20a 15 15, 0, 0, 1, 15 -15" transform="rotate(-90,40,260)"/><circle cx="40" cy="260" r="15" transform="rotate(-90,40,260)"/></clipPath></defs><rect x="0" y="0" height="300" width="300" clip-path="url('#clip-path-background-color')" fill="transparent" style="transform: translate(160px, 83px) scale(0.445);"/><rect x="0" y="0" height="300" width="300" clip-path="url('#clip-path-dot-color')" fill="#000000" style="transform: translate(160px, 83px) scale(0.445);"/></svg><svg class="border-twenty-two" data-name="Layer 1" xmlns="http://www.w3.org/2000/svg" width="300" height="300" viewBox="0 0 300 300">
<g style="fill: rgb(0, 0, 0);">
<path id="FrameBody" d="M292,77.83H161.75a7.07,7.07,0,0,0-7.09,7.09V215.08a7.1,7.1,0,0,0,7.09,7.09H291.91a7.13,7.13,0,0,0,7.14-7V84.92A7.1,7.1,0,0,0,292,77.83ZM295.77,215a4,4,0,0,1-4,4h-130a3.94,3.94,0,0,1-3.95-4V85a3.94,3.94,0,0,1,3.95-4h130a4,4,0,0,1,4,4Z"/>
<path d="M117.81,187.78a1.85,1.85,0,0,1-1.09-3.33,112.61,112.61,0,0,0,13.94-11.9C87.23,188.17,55.32,187,35.94,183.16,14,178.78,3.05,170.24,2.6,169.88A1.84,1.84,0,1,1,4.89,167c.1.08,10.83,8.42,32,12.6,19.06,3.75,50.6,4.78,93.72-11-8.14-.79-20.18.38-20.31.4a1.84,1.84,0,0,1-.37-3.67c.65-.06,15.81-1.53,24.12,0a3.32,3.32,0,0,1,2.93,2.49c.41,1.81-.33,4.67-8.94,12.17-4.48,3.9-9,7.23-9.18,7.37A1.85,1.85,0,0,1,117.81,187.78Z"/>
<g>
<g>
<path d="M11.1,141.23c0-.71-.86-1.51-2.59-2.41a23.87,23.87,0,0,1-4.46-2.7,3,3,0,0,1-1.17-2.27,6.26,6.26,0,0,1,3.25-5.36q3.24-2.13,5.28-2.13a3.17,3.17,0,0,1,1.91.46,1.85,1.85,0,0,1,.59,1.57,1.09,1.09,0,0,1-.43.87,1.26,1.26,0,0,1-.67.35,2.22,2.22,0,0,1-.7-.24,2.43,2.43,0,0,0-.68-.23,10.47,10.47,0,0,0-3.3,1.19c-1.66.79-2.48,1.68-2.48,2.68a2.17,2.17,0,0,0,.87,1.65,16.44,16.44,0,0,0,3.15,1.81,12,12,0,0,1,2.94,1.87,3.09,3.09,0,0,1,1.09,2.35q0,2.49-3.42,3.89A17.24,17.24,0,0,1,3.73,146c-1.76,0-2.63-.6-2.63-1.79a1,1,0,0,1,.59-.91A2.74,2.74,0,0,1,2.88,143a4.62,4.62,0,0,1,.93.16,4.56,4.56,0,0,0,.88.16,13.82,13.82,0,0,0,3.86-.6A4.12,4.12,0,0,0,11.1,141.23Z"/>
<path d="M3.73,146.17c-1.87,0-2.82-.66-2.82-2a1.13,1.13,0,0,1,.7-1.07,2.84,2.84,0,0,1,1.27-.32,5.4,5.4,0,0,1,1,.17,4.68,4.68,0,0,0,.84.16,13.83,13.83,0,0,0,3.81-.59,4.18,4.18,0,0,0,2.42-1.37c0-.43-.51-1.16-2.5-2.19a25.59,25.59,0,0,1-4.5-2.73,3.17,3.17,0,0,1-1.22-2.41A6.47,6.47,0,0,1,6,128.34c2.19-1.43,4-2.16,5.39-2.16a3.3,3.3,0,0,1,2,.49,2,2,0,0,1,.67,1.72,1.28,1.28,0,0,1-.5,1,1.39,1.39,0,0,1-.79.4,2.06,2.06,0,0,1-.78-.26,1.82,1.82,0,0,0-.6-.21,10.46,10.46,0,0,0-3.22,1.16c-1.58.76-2.38,1.6-2.38,2.52a2,2,0,0,0,.81,1.51,15.56,15.56,0,0,0,3.11,1.78,12.07,12.07,0,0,1,3,1.91,3.26,3.26,0,0,1,1.16,2.48c0,1.73-1.19,3.1-3.54,4.06A17.59,17.59,0,0,1,3.73,146.17Zm-.85-3a2.4,2.4,0,0,0-1.11.28.77.77,0,0,0-.49.74c0,1.08.8,1.6,2.45,1.6a17.09,17.09,0,0,0,6.48-1.39c2.19-.9,3.31-2.15,3.31-3.72a2.88,2.88,0,0,0-1-2.21,12,12,0,0,0-2.88-1.85,15.71,15.71,0,0,1-3.2-1.83A2.34,2.34,0,0,1,5.46,133c0-1.07.87-2,2.59-2.85a10.35,10.35,0,0,1,3.38-1.2,2,2,0,0,1,.76.24,1.89,1.89,0,0,0,.62.23c.07,0,.23,0,.56-.32a.91.91,0,0,0,.36-.72,1.71,1.71,0,0,0-.52-1.43,3.08,3.08,0,0,0-1.8-.41c-1.32,0-3.06.7-5.18,2.1a6.09,6.09,0,0,0-3.16,5.2A2.81,2.81,0,0,0,4.17,136a24.3,24.3,0,0,0,4.42,2.68c1.82.94,2.7,1.78,2.7,2.57l0,.09a4.32,4.32,0,0,1-2.66,1.58,14.31,14.31,0,0,1-3.92.61,5.1,5.1,0,0,1-.92-.17A5.43,5.43,0,0,0,2.88,143.18Z"/>
</g>
<g>
<path d="M21.48,145.87a4.87,4.87,0,0,1-3.74-1.39,5.53,5.53,0,0,1-1.31-3.92c0-2.82,1.12-5.81,3.37-8.94s4.32-4.7,6.25-4.7a2.72,2.72,0,0,1,2.27,1.42,5.36,5.36,0,0,1,.95,3,3.11,3.11,0,0,1-.42,1.65c-.27.46-.55.69-.83.69-.63,0-1.08-.63-1.34-1.9s-.71-2-1.26-2q-1.7,0-4,4a14.31,14.31,0,0,0-2.31,6.77c0,1.84,1.05,2.76,3.14,2.76a10.44,10.44,0,0,0,5.62-2.24,3.64,3.64,0,0,1,1.67-.8c.37,0,.55.21.55.64,0,.82-1,1.86-2.9,3.11A10.51,10.51,0,0,1,21.48,145.87Z"/>
<path d="M21.48,146.06a5,5,0,0,1-3.87-1.46,5.7,5.7,0,0,1-1.36-4c0-2.85,1.14-5.9,3.4-9.05s4.42-4.78,6.4-4.78a2.91,2.91,0,0,1,2.42,1.51,5.52,5.52,0,0,1,1,3.11,3.33,3.33,0,0,1-.44,1.74c-.32.53-.64.78-1,.78-.73,0-1.24-.68-1.52-2s-.64-1.9-1.08-1.9c-1.05,0-2.35,1.32-3.84,3.92a14.16,14.16,0,0,0-2.28,6.68c0,1.73,1,2.58,2.95,2.58a10.31,10.31,0,0,0,5.51-2.21,3.67,3.67,0,0,1,1.78-.83c.28,0,.74.11.74.82,0,.9-1,2-3,3.26A10.69,10.69,0,0,1,21.48,146.06Zm4.57-19c-1.86,0-3.91,1.56-6.11,4.63s-3.32,6.06-3.32,8.83a5.38,5.38,0,0,0,1.25,3.79,4.74,4.74,0,0,0,3.61,1.34,10.36,10.36,0,0,0,5.61-1.85c1.87-1.21,2.82-2.2,2.82-3,0-.38-.15-.45-.37-.45a3.31,3.31,0,0,0-1.57.76,10.59,10.59,0,0,1-5.72,2.28c-2.2,0-3.32-1-3.32-2.95a14.58,14.58,0,0,1,2.33-6.87c1.59-2.76,2.95-4.1,4.16-4.1.65,0,1.13.72,1.44,2.19.24,1.17.63,1.76,1.16,1.76.26,0,.51-.33.67-.61a2.92,2.92,0,0,0,.39-1.55,5.16,5.16,0,0,0-.92-2.91A2.52,2.52,0,0,0,26.05,127.1Z"/>
</g>
<g>
<path d="M44.86,139a19.67,19.67,0,0,1-4.5,4.59,7.42,7.42,0,0,1-4.08,1.52,2.78,2.78,0,0,1-2.16-1,4.06,4.06,0,0,1-.91-2.72q0-4.26,3.82-9.2t7.59-4.93a2.17,2.17,0,0,1,2,1.56.7.7,0,0,0,.66.52c.87,0,1.3.34,1.3,1a8,8,0,0,1-.16,1.38,44.54,44.54,0,0,0-.88,6.76q0,3.93,1.5,4.71a1.11,1.11,0,0,1,.71,1,1.37,1.37,0,0,1-.69,1,2.33,2.33,0,0,1-1.35.51c-.84,0-1.52-.57-2.07-1.72A11.85,11.85,0,0,1,44.86,139Zm-1-9.14q-2.15,0-5,4T36,140.58c0,1.24.41,1.87,1.24,1.87,1.19,0,2.84-1.21,4.95-3.61s3.17-4.61,3.17-6.63C45.4,130.66,44.89,129.89,43.87,129.89Z"/>
<path d="M47.74,145.85c-.91,0-1.66-.62-2.23-1.83a11.29,11.29,0,0,1-.83-4.45,19.35,19.35,0,0,1-4.21,4.2,7.65,7.65,0,0,1-4.19,1.56,3,3,0,0,1-2.3-1.12,4.24,4.24,0,0,1-.95-2.84c0-2.87,1.3-6,3.86-9.31s5.17-5,7.73-5a2.36,2.36,0,0,1,2.2,1.67c.15.36.35.41.49.41,1.23,0,1.49.64,1.49,1.19a8.33,8.33,0,0,1-.17,1.41,43.75,43.75,0,0,0-.87,6.73c0,2.53.47,4.06,1.39,4.54a1.31,1.31,0,0,1,.82,1.13,1.54,1.54,0,0,1-.78,1.16A2.48,2.48,0,0,1,47.74,145.85Zm-2.69-7.37V139a11.67,11.67,0,0,0,.79,4.83c.77,1.63,1.87,2.07,3.14,1.14.41-.3.62-.59.62-.86s-.2-.57-.62-.8c-1.07-.56-1.59-2.15-1.59-4.87a44.65,44.65,0,0,1,.88-6.79,7.67,7.67,0,0,0,.16-1.35c0-.36-.12-.83-1.12-.83a.87.87,0,0,1-.83-.63,2,2,0,0,0-1.86-1.44c-2.44,0-4.95,1.63-7.44,4.85s-3.78,6.3-3.78,9.09a3.88,3.88,0,0,0,.86,2.6,2.6,2.6,0,0,0,2,1,7.2,7.2,0,0,0,4-1.5,19.63,19.63,0,0,0,4.45-4.54Zm-7.77,4.15c-.65,0-1.42-.36-1.42-2s1-4.08,2.87-6.78,3.63-4.09,5.14-4.09c1.14,0,1.71.84,1.71,2.5,0,2-1.08,4.32-3.21,6.75S38.53,142.63,37.28,142.63Zm6.59-12.56c-1.36,0-3,1.33-4.84,4s-2.81,4.84-2.81,6.56.8,1.68,1.06,1.68c1.13,0,2.75-1.19,4.81-3.54s3.12-4.55,3.12-6.51C45.21,130.07,44.2,130.07,43.87,130.07Z"/>
</g>
<g>
<path d="M64.5,132.46a2.67,2.67,0,0,0-1.84,1.1,29.35,29.35,0,0,0-3,5q-2.7,5.16-3.48,5.88a2.24,2.24,0,0,1-1.31.71c-1.28,0-1.92-.62-1.92-1.85a13.63,13.63,0,0,1,.26-2.21,57.29,57.29,0,0,0,.9-10.35,2.45,2.45,0,0,1,.52-1.37c.36-.5.69-.76,1-.76a1.38,1.38,0,0,1,1.21.52,4.26,4.26,0,0,1,.35,2.1,46.37,46.37,0,0,1-1,6.76,15.48,15.48,0,0,0-.33,2.14c0,.17,0,.26.13.26s.92-1.29,2.26-3.88a25.16,25.16,0,0,1,3.56-5.56,4.59,4.59,0,0,1,3.36-1.61,2.78,2.78,0,0,1,2.38,1.34,11.57,11.57,0,0,1,1.34,4.85,29.22,29.22,0,0,0,.82,5c.25.65.63,1,1.16,1a3.13,3.13,0,0,0,1.27-.36.53.53,0,0,1,.2-.06q.69,0,.69.81a2.18,2.18,0,0,1-1,1.52,3.46,3.46,0,0,1-2.31.8,2.45,2.45,0,0,1-2.14-1.09q-.75-1.09-1.19-5.86T64.5,132.46Z"/>
<path d="M54.82,145.29a1.85,1.85,0,0,1-2.1-2A13.92,13.92,0,0,1,53,141a58,58,0,0,0,.89-10.32,2.69,2.69,0,0,1,.56-1.48c.4-.56.77-.83,1.15-.83a1.54,1.54,0,0,1,1.36.6,4.22,4.22,0,0,1,.39,2.2,46.75,46.75,0,0,1-1,6.79A18.09,18.09,0,0,0,56,140a38.11,38.11,0,0,0,2-3.66,25.28,25.28,0,0,1,3.59-5.59,4.73,4.73,0,0,1,3.49-1.67,2.94,2.94,0,0,1,2.53,1.41,11.5,11.5,0,0,1,1.37,4.94,29.74,29.74,0,0,0,.81,4.95c.37,1,1,1.09,2.18.53a.64.64,0,0,1,.28-.09c.33,0,.88.13.88,1a2.34,2.34,0,0,1-1,1.66,3.66,3.66,0,0,1-2.42.85,2.64,2.64,0,0,1-2.29-1.18c-.53-.76-.93-2.71-1.22-5.94-.37-3.81-1.15-4.61-1.74-4.61a2.58,2.58,0,0,0-1.71,1,30.09,30.09,0,0,0-3,4.92c-1.82,3.5-3,5.44-3.52,5.93A2.28,2.28,0,0,1,54.82,145.29Zm.76-16.53c-.24,0-.54.23-.84.67a2.32,2.32,0,0,0-.5,1.27,57.71,57.71,0,0,1-.9,10.38,13.1,13.1,0,0,0-.25,2.18c0,1.14.55,1.67,1.73,1.67.2,0,.58-.12,1.18-.67s1.67-2.42,3.45-5.83a28.43,28.43,0,0,1,3.07-5,2.84,2.84,0,0,1,2-1.17c1.1,0,1.79,1.62,2.1,4.94.29,3.13.68,5.07,1.16,5.77a2.25,2.25,0,0,0,2,1,3.35,3.35,0,0,0,2.19-.76,2,2,0,0,0,.89-1.38c0-.55-.26-.63-.51-.63l-.12.05a3.36,3.36,0,0,1-1.35.38,1.41,1.41,0,0,1-1.33-1.11,29,29,0,0,1-.83-5,11.66,11.66,0,0,0-1.31-4.77,2.59,2.59,0,0,0-2.23-1.25A4.43,4.43,0,0,0,61.92,131a25.31,25.31,0,0,0-3.53,5.51c-2.06,4-2.24,4-2.42,4s-.31,0-.31-.44a15.93,15.93,0,0,1,.33-2.18,47,47,0,0,0,1-6.72,3.72,3.72,0,0,0-.33-2A1.15,1.15,0,0,0,55.58,128.76Z"/>
</g>
<g>
<path d="M101.07,132.1q-1.51,0-6.47,9a28.6,28.6,0,0,1-1.95,3.27,2.42,2.42,0,0,1-1,.48,4.64,4.64,0,0,1-1.23.21c-.72,0-1.09-1.41-1.09-4.24a64.78,64.78,0,0,1,1-8.64,25.53,25.53,0,0,0,.42-3.62c0-.72.32-1.07,1-1.07,1.2,0,1.8.86,1.8,2.6a35.78,35.78,0,0,1-.6,4.77,48.33,48.33,0,0,0-.71,4.94,23.45,23.45,0,0,0,3-4.27,32,32,0,0,1,4.07-5.73,4,4,0,0,1,2.71-1.21q1,0,1.68,1.41c.41,1,.67,3.19.75,6.75a7.47,7.47,0,0,0,.25,2c.14.43.24.65.31.65.5,0,1.61-1.74,3.31-5.2a18.72,18.72,0,0,1,2.66-4.18,3.81,3.81,0,0,1,2.86-1.43,2,2,0,0,1,1.92,1.36,13.7,13.7,0,0,1,.86,4,37,37,0,0,0,.76,4.94,3.87,3.87,0,0,0,1.87,2.88q.93.43.93,1a1.61,1.61,0,0,1-.78,1.17,2.43,2.43,0,0,1-1.43.6,2.84,2.84,0,0,1-2.32-1.59c-.69-1.06-1.2-3.36-1.55-6.89a27.15,27.15,0,0,0-.44-3q-.21-.9-.66-.9c-.46,0-1,.44-1.62,1.3a52.55,52.55,0,0,0-3,5.28,28.49,28.49,0,0,1-2.46,4.14,2.25,2.25,0,0,1-1.62,1,1.74,1.74,0,0,1-1.25-.56,2.52,2.52,0,0,1-.7-1.35c-.1-.52-.2-1.82-.31-3.87Q101.72,132.94,101.07,132.1Z"/>
<path d="M90.41,145.2c-.87,0-1.27-1.41-1.27-4.43a64.88,64.88,0,0,1,1-8.67,26.68,26.68,0,0,0,.42-3.59c0-.81.4-1.26,1.14-1.26,1.32,0,2,.94,2,2.79a36.64,36.64,0,0,1-.61,4.8c-.36,2.12-.59,3.59-.67,4.4A29.52,29.52,0,0,0,95,135.38a32.16,32.16,0,0,1,4.11-5.76,4.13,4.13,0,0,1,2.83-1.26c.78,0,1.4.51,1.85,1.52s.68,3.2.77,6.81a7.5,7.5,0,0,0,.23,1.93,2.49,2.49,0,0,0,.2.51c.24-.1,1-.82,3.08-5.08a19.2,19.2,0,0,1,2.69-4.22,4,4,0,0,1,3-1.49,2.17,2.17,0,0,1,2.09,1.47,13.65,13.65,0,0,1,.87,4.07,38.34,38.34,0,0,0,.76,4.92,3.69,3.69,0,0,0,1.77,2.75c.69.32,1,.72,1,1.19a1.74,1.74,0,0,1-.85,1.31,2.57,2.57,0,0,1-1.54.64,3,3,0,0,1-2.48-1.67c-.7-1.1-1.22-3.38-1.57-7-.15-1.41-.3-2.41-.43-3-.09-.34-.24-.75-.49-.75s-.74.21-1.47,1.22a55.47,55.47,0,0,0-3,5.26,28.61,28.61,0,0,1-2.48,4.16,2.41,2.41,0,0,1-1.76,1.1,1.89,1.89,0,0,1-1.38-.61,2.75,2.75,0,0,1-.75-1.45c-.1-.53-.2-1.81-.31-3.89-.19-3.93-.53-5.33-.8-5.8-.7.16-2.35,1.89-6.22,8.85a24.85,24.85,0,0,1-2,3.32,2.62,2.62,0,0,1-1.09.52A5.11,5.11,0,0,1,90.41,145.2Zm1.32-17.58c-.54,0-.78.27-.78.89a25.67,25.67,0,0,1-.42,3.65,63.78,63.78,0,0,0-1,8.61c0,3.53.56,4.06.9,4.06a4.67,4.67,0,0,0,1.18-.2,2.49,2.49,0,0,0,.94-.44A28.85,28.85,0,0,0,94.44,141c4.49-8.08,5.93-9,6.63-9.05h.09l.06.08c.46.6.76,2.58.93,6.08.1,2,.21,3.33.3,3.85a2.36,2.36,0,0,0,.65,1.25,1.54,1.54,0,0,0,1.12.51,2.08,2.08,0,0,0,1.47-1,28.55,28.55,0,0,0,2.45-4.1,53.05,53.05,0,0,1,3-5.3c.67-.93,1.25-1.38,1.77-1.38s.68.35.84,1a27.47,27.47,0,0,1,.45,3c.34,3.49.85,5.78,1.51,6.81a2.69,2.69,0,0,0,2.17,1.51,2.25,2.25,0,0,0,1.32-.57c.47-.36.7-.7.7-1s-.27-.6-.82-.86a4,4,0,0,1-2-3,37.3,37.3,0,0,1-.76-5,13.52,13.52,0,0,0-.85-4,1.81,1.81,0,0,0-1.75-1.25,3.65,3.65,0,0,0-2.73,1.37,18.75,18.75,0,0,0-2.63,4.13c-2.3,4.7-3.07,5.3-3.47,5.3-.18,0-.29-.17-.49-.78a7.31,7.31,0,0,1-.25-2c-.09-3.51-.34-5.76-.74-6.67s-.88-1.3-1.51-1.3a3.81,3.81,0,0,0-2.58,1.16,31.24,31.24,0,0,0-4,5.68,22.69,22.69,0,0,1-3,4.31l-.32.31v-.44c0-.6.25-2.23.72-5a35.53,35.53,0,0,0,.6-4.74C93.35,128.41,92.82,127.62,91.73,127.62Z"/>
</g>
<g>
<path d="M136.91,139.44q0,1.67-2.94,4a9.6,9.6,0,0,1-6,2.34,5.19,5.19,0,0,1-4-1.55,6.1,6.1,0,0,1-1.43-4.3,14.55,14.55,0,0,1,3.14-8.84q3.14-4.18,6.85-4.19a2.7,2.7,0,0,1,2.77,2.71,6.57,6.57,0,0,1-2.46,4.79,31.43,31.43,0,0,1-6.56,4.51,1.29,1.29,0,0,0-.84,1.13,3,3,0,0,0,.78,2.16,3,3,0,0,0,2.3.82q3.5,0,7.13-3.87c.36-.36.63-.54.82-.54C136.73,138.61,136.91,138.89,136.91,139.44Zm-11.29-2.53q6.88-4.09,6.88-6.58c0-.65-.29-1-.87-1-1,0-2.12.73-3.37,2.2A12.4,12.4,0,0,0,125.62,136.91Z"/>
<path d="M127.92,146a5.42,5.42,0,0,1-4.17-1.6,6.3,6.3,0,0,1-1.47-4.43,14.78,14.78,0,0,1,3.17-9c2.12-2.83,4.47-4.26,7-4.26a2.85,2.85,0,0,1,3,2.89,6.79,6.79,0,0,1-2.51,4.93,32.09,32.09,0,0,1-6.6,4.53c-.51.26-.75.58-.75,1a2.82,2.82,0,0,0,.73,2,2.89,2.89,0,0,0,2.17.75c2.27,0,4.62-1.28,7-3.81.41-.4.71-.59.95-.59s.7.13.7,1c0,1.18-1,2.53-3,4.14A9.85,9.85,0,0,1,127.92,146Zm4.53-18.88c-2.4,0-4.66,1.39-6.7,4.12a14.4,14.4,0,0,0-3.1,8.73,6,6,0,0,0,1.37,4.18,5.08,5.08,0,0,0,3.9,1.48,9.45,9.45,0,0,0,5.94-2.3c1.9-1.51,2.86-2.81,2.86-3.85,0-.64-.24-.64-.33-.64s-.25,0-.69.48c-2.44,2.6-4.89,3.92-7.26,3.92a3.25,3.25,0,0,1-2.44-.87,3.17,3.17,0,0,1-.83-2.29,1.47,1.47,0,0,1,1-1.3,31.59,31.59,0,0,0,6.52-4.47,6.44,6.44,0,0,0,2.39-4.66,2.44,2.44,0,0,0-.72-1.79A2.48,2.48,0,0,0,132.45,127.08Zm-7.12,10.21.11-.43a12.72,12.72,0,0,1,2.68-5.43c1.3-1.52,2.44-2.26,3.51-2.26.68,0,1.06.41,1.06,1.16,0,1.74-2.28,3.94-7,6.74Zm6.3-7.75c-.94,0-2,.71-3.23,2.13a12.28,12.28,0,0,0-2.49,4.85c4.25-2.58,6.41-4.66,6.41-6.19C132.32,129.78,132.11,129.54,131.63,129.54Z"/>
</g>
</g>
</g>
</svg></svg>